<svg xmlns="http://www.w3.org/2000/svg" width="24" height="24" viewBox="0 0 24 24">
    <path fill="#4C4D57" fill-rule="evenodd" d="M3 3v18a1 1 0 0 0 1 1h14V2H4a1 1 0 0 0-1 1zm4.79 5.1a2.79 2.79 0 0 1 5.41 0c.071.33.071.67 0 1l-.2 1.06a2.5 2.5 0 0 1-2.37 1.89h-.23A2.4 2.4 0 0 1 8 10.16l-.19-1.07a2.36 2.36 0 0 1-.02-.99zM5 15.9a3.3 3.3 0 0 1 3.3-3.3h4.4a3.3 3.3 0 0 1 3.3 3.3V17H5v-1.1zM20.6 4H19v4h1.6a.4.4 0 0 0 .4-.4V4.4a.4.4 0 0 0-.4-.4zm0 6H19v4h1.6a.4.4 0 0 0 .4-.4v-3.2a.4.4 0 0 0-.4-.4zm0 6H19v4h1.6a.4.4 0 0 0 .4-.4v-3.2a.4.4 0 0 0-.4-.4z"/>
</svg>
