<svg xmlns="http://www.w3.org/2000/svg" width="24" height="24" viewBox="0 0 24 24">
    <path fill="#4C4D57" fill-rule="evenodd" d="M15.87 10.49a1 1 0 0 1 0 1l-2 3.51H18a1 1 0 0 0 1-1v-4a1 1 0 0 0-1-1h-4.58l-.2 1H15a1 1 0 0 1 .87.49zM3 8h7.71l.57-1H3a1 1 0 0 0-1 1v8a1 1 0 0 0 1 1h7.18l.2-1H3V8zm18 2V8a1 1 0 0 0-1-1h-6.18l-.2 1H20v8h-6.71l-.57 1H20a1 1 0 0 0 1-1v-2a1 1 0 0 0 1-1v-2a1 1 0 0 0-1-1zM8.13 13.5a1 1 0 0 1 0-1l2-3.5H5a1 1 0 0 0-1 1v4a1 1 0 0 0 1 1h5.58l.2-1H9a1 1 0 0 1-.87-.5zM15 11h-3l1-5-4 7h3l-1 5 4-7z"/>
</svg>
