<svg xmlns="http://www.w3.org/2000/svg" width="24" height="24" viewBox="0 0 24 24">
    <path fill="#4C4D57" fill-rule="evenodd" d="M17.339 13.06a3.237 3.237 0 0 0-1.858-1.227 3.266 3.266 0 0 0 1.628-1.287 3.92 3.92 0 0 0 .55-2.126A3.792 3.792 0 0 0 16.1 5.146a7.638 7.638 0 0 0-4.545-1.128H6v15.97h6.284a6.728 6.728 0 0 0 4.266-1.208 4.27 4.27 0 0 0 1.438-3.523 3.68 3.68 0 0 0-.65-2.196zM9.726 7.013h1.829a2.91 2.91 0 0 1 1.818.45c.417.349.646.873.62 1.417.032.497-.158.984-.52 1.327a2.68 2.68 0 0 1-1.749.47H9.726V7.011zm3.996 9.572a2.27 2.27 0 0 1-1.548.48H9.726V13.19h2.618a1.76 1.76 0 0 1 1.928 1.996 1.676 1.676 0 0 1-.55 1.357v.04z"/>
</svg>
