<svg xmlns="http://www.w3.org/2000/svg" width="24" height="24" viewBox="0 0 24 24">
    <path fill="#4C4D57" fill-rule="evenodd" d="M16.317 7.848a2.772 2.772 0 0 0 2.592 2.184h.19a2.652 2.652 0 0 0 2.592-2.184l.24-1.236c.079-.375.079-.762 0-1.137a2.991 2.991 0 0 0-5.893 0c-.08.375-.08.762 0 1.137l.279 1.236zm-5.284 9.164h1.994v-1.995h-1.994v1.995zm-5.065-4.089a1.137 1.137 0 0 0-1.545-.408c-.508.32-.671.986-.37 1.505l3.38 5.833a1.145 1.145 0 1 0 1.995-1.126l-3.46-5.804zm-3.6-5.075a2.652 2.652 0 0 0 2.593 2.184h.19a2.772 2.772 0 0 0 2.592-2.184l.239-1.236c.1-.37.12-.758.06-1.137A3.041 3.041 0 0 0 5.05 3.052 3.051 3.051 0 0 0 2.06 5.475c-.08.375-.08.762 0 1.137l.309 1.236zm4.537 12.304l-3.38-5.823a1.686 1.686 0 0 1 2.922-1.685l1.595 2.782v-2.134A2.403 2.403 0 0 0 5.639 10.9H4.463a2.403 2.403 0 0 0-2.403 2.393V21h5.982a1.705 1.705 0 0 1-1.137-.848zm4.128.848h1.994v-1.994h-1.994V21zm5.633-1.117l3.34-5.863a1.117 1.117 0 0 0-.409-1.525 1.137 1.137 0 0 0-1.545.409l-3.33 5.843a1.127 1.127 0 1 0 1.944 1.126v.01zm-5.633-6.86h1.994V11.03h-1.994v1.994zm8.564-2.114h-1.196a2.403 2.403 0 0 0-2.383 2.383v2.134l1.615-2.782a1.686 1.686 0 1 1 2.921 1.685l-3.38 5.823a1.705 1.705 0 0 1-1.156.848H22v-7.708a2.403 2.403 0 0 0-2.403-2.393v.01zm-8.564-1.874h1.994V7.04h-1.994v1.994zm0-3.989h1.994V3.052h-1.994v1.994z"/>
</svg>
