<svg xmlns="http://www.w3.org/2000/svg" width="24" height="24" viewBox="0 0 24 24">
    <path fill="#4C4D57" fill-rule="evenodd" d="M21 15H5.41l1.3-1.29a1.004 1.004 0 0 0-1.42-1.42l-3 3a1 1 0 0 0 0 1.41l3 3a1 1 0 0 0 1.42 0 1 1 0 0 0 0-1.42L5.41 17H21a1 1 0 0 0 0-2zM3 9l15.59-.006-1.3 1.288a.998.998 0 0 0 0 1.418 1 1 0 0 0 1.42 0l3-2.996a.998.998 0 0 0 .29-.709.998.998 0 0 0-.29-.71l-3-2.995a1.005 1.005 0 0 0-1.42 0 1.002 1.002 0 0 0 0 1.418l1.3 1.288H3a1 1 0 0 0-1 1C2 8.545 2.448 9 3 9z"/>
</svg>
