<svg xmlns="http://www.w3.org/2000/svg" width="24" height="24" viewBox="0 0 24 24">
    <path fill="#4C4D57" fill-rule="evenodd" d="M12.006 16a9.868 9.868 0 0 1-7.785-4 10.494 10.494 0 0 1 3.002-2.68l-1.44-1.45a12.524 12.524 0 0 0-3.643 3.62 1 1 0 0 0 0 1A12.009 12.009 0 0 0 12.006 18c1.15.002 2.295-.173 3.392-.52l-1.64-1.64a9.742 9.742 0 0 1-1.752.16zm-3.672-5.58a3.998 3.998 0 0 0 .85 4.4 4.004 4.004 0 0 0 4.403.85l-5.253-5.25zm13.538 2.1a1 1 0 0 0 0-1A12.009 12.009 0 0 0 12.006 6a11.173 11.173 0 0 0-3.392.52L4.742 2.65 3.35 4l16.66 16.65 1.38-1.39-3.131-3.13a12.694 12.694 0 0 0 3.612-3.61zm-5.093 2.16l-1.11-1.11c.218-.495.333-1.03.34-1.57 0-2.21-1.793-4-4.003-4a3.714 3.714 0 0 0-1.56.35l-.181-.18A9.611 9.611 0 0 1 12.006 8a9.868 9.868 0 0 1 7.785 4 10.634 10.634 0 0 1-3.012 2.68z"/>
</svg>
