<svg xmlns="http://www.w3.org/2000/svg" width="24" height="24" viewBox="0 0 24 24">
    <path fill="#4C4D57" fill-rule="nonzero" d="M21.89 10.514C21.143 5.617 16.944 2 12.005 2S2.867 5.617 2.12 10.514a1.006 1.006 0 0 0-.12.452v4.012c0 .554.448 1.003 1 1.003h2c.552 0 1-.449 1-1.003v-4.012c0-.554-.448-1.003-1-1.003h-.73a8.004 8.004 0 0 1 7.735-5.977 8.004 8.004 0 0 1 7.735 5.977H19c-.552 0-1 .449-1 1.003v4.012c0 .554.448 1.003 1 1.003h.5a8.539 8.539 0 0 1-4.5 4.013c0-.554-.448-1.003-1-1.003h-4c-.552 0-1 .449-1 1.003v1.003C9 21.55 9.448 22 10 22h4c.552 0 1-.45 1-1.003a9.58 9.58 0 0 0 5.61-5.016H21c.552 0 1-.449 1-1.003v-4.012a1.157 1.157 0 0 0-.11-.452z"/>
</svg>
