<svg xmlns="http://www.w3.org/2000/svg" width="24" height="24" viewBox="0 0 24 24">
    <path fill="#4C4D57" fill-rule="evenodd" d="M16.56 10.75c.09.35.227.687.41 1 .15.258.328.5.53.72a3.2 3.2 0 0 0 .49-.71c.17-.314.295-.65.37-1l-1.8-.01zM21 4h-9.64L11 2.7a1 1 0 0 0-1-.7H3a1 1 0 0 0-1 1v16a1 1 0 0 0 1 1h10.44l.36 1.26a1 1 0 0 0 1 .74H21a1 1 0 0 0 1-1V5a1 1 0 0 0-1-1zM4 18V4h5l3.89 14H4zm16-3a7 7 0 0 1-2.43-1.25A7.31 7.31 0 0 1 15 15a3 3 0 0 0-.52-1 6.26 6.26 0 0 0 2.31-1 5.8 5.8 0 0 1-.79-1 5.42 5.42 0 0 1-.48-1.2h-.96v-1a7.2 7.2 0 0 0 .86 0h1.48v-.37a1.91 1.91 0 0 0 0-.43H18a2.74 2.74 0 0 0 0 .43v.41h1.58a7.2 7.2 0 0 0 .86 0v1H19.4A4.94 4.94 0 0 1 19 12a5 5 0 0 1-.71 1.06 5.57 5.57 0 0 0 2.21.94 3.39 3.39 0 0 0-.5 1zM7.28 9L5 15h1.6l.4-1.12h2L9.39 15H11L8.7 9H7.28zm0 3.76L8 10.68l.67 2.08H7.28z"/>
</svg>
