<svg xmlns="http://www.w3.org/2000/svg" width="24" height="24" viewBox="0 0 24 24">
    <path fill="#4C4D57" fill-rule="evenodd" d="M12 2C6.477 2 2 6.477 2 12s4.477 10 10 10 10-4.477 10-10A10 10 0 0 0 12 2zm1 15.62a1.61 1.61 0 0 1-1.1.38 1.63 1.63 0 0 1-1.09-.38 1.25 1.25 0 0 1-.43-1 1.23 1.23 0 0 1 .43-1c.3-.263.69-.403 1.09-.39.4-.014.79.126 1.09.39.294.247.456.617.44 1a1.26 1.26 0 0 1-.43 1zm2.58-7.21a4.15 4.15 0 0 1-.86 1.12l-.94.87a2.25 2.25 0 0 0-.56.77 3.18 3.18 0 0 0-.17 1h-2.34a5.15 5.15 0 0 1 .29-1.84 2.87 2.87 0 0 1 .87-1.18c.341-.27.65-.579.92-.92a1.48 1.48 0 0 0 .31-.92c0-.81-.35-1.21-1.06-1.21a1 1 0 0 0-.79.35c-.22.286-.33.64-.31 1H8.16a3.22 3.22 0 0 1 1-2.51A4.11 4.11 0 0 1 12 6a4.29 4.29 0 0 1 2.82.83 2.88 2.88 0 0 1 1 2.36 2.7 2.7 0 0 1-.25 1.22h.01z"/>
</svg>
