<svg xmlns="http://www.w3.org/2000/svg" width="24" height="24" viewBox="0 0 24 24">
    <path fill="#4C4D57" fill-rule="evenodd" d="M4.07 11.63a1 1 0 1 0-.765 1.848 1 1 0 0 0 .765-1.848zM9 15a1 1 0 1 0 0 2 1 1 0 0 0 0-2zm-1.7-2.88a1.003 1.003 0 1 0-1 1.74 1.003 1.003 0 0 0 1-1.74zm1.64-3.51a1.002 1.002 0 1 0-.77-1.85 1.002 1.002 0 0 0 .77 1.85zM6 15a1 1 0 1 0 0 2 1 1 0 0 0 0-2zm-3 0a1 1 0 1 0 0 2 1 1 0 0 0 0-2zm11.5-3.34a1 1 0 1 0 .99-1.737 1 1 0 0 0-.99 1.737zM12 8a1 1 0 1 0 0-2 1 1 0 0 0 0 2zM8.5 9.93a1 1 0 1 0 1 1.73 1 1 0 1 0-1-1.73zm-2.16.41a1 1 0 1 0-1.41-1.418 1 1 0 0 0 1.41 1.418zM18 15a1 1 0 1 0 0 2 1 1 0 0 0 0-2zm-8-2.46a1 1 0 0 0-.37 1.36 1.003 1.003 0 1 0 .37-1.37v.01zM21 15a1 1 0 1 0 0 2 1 1 0 0 0 0-2zm-.3-1.52a1 1 0 1 0-.772-1.845 1 1 0 0 0 .772 1.845zm-3 .38a1 1 0 1 0-1.003-1.73 1 1 0 0 0 1.003 1.73zm1.37-4.93a1 1 0 1 0-1.418 1.41 1 1 0 0 0 1.418-1.41zM13 10a1 1 0 1 0-2 0 1 1 0 0 0 2 0zm1.37 3.9a1.003 1.003 0 1 0-1.74-1 1.003 1.003 0 0 0 1.74 1zM15 15a1 1 0 1 0 0 2 1 1 0 0 0 0-2zm.83-8.23a1 1 0 1 0 .54 1.3 1 1 0 0 0-.54-1.31v.01z"/>
</svg>
