<svg xmlns="http://www.w3.org/2000/svg" width="24" height="24" viewBox="0 0 24 24">
    <path fill="#4C4D57" fill-rule="evenodd" d="M7.7 3.29A1 1 0 0 0 7 3a1 1 0 0 0-.7.29l-3 3a1 1 0 0 0 1.41 1.42L6 6.41V20a1 1 0 0 0 2 0V6.42l1.29 1.29a1 1 0 0 0 1.42 0 1 1 0 0 0 0-1.42l-3.01-3zM18 11h2V3l-3.68 1.21v1.41L18 5.09V11zm2.64 3.48a2.62 2.62 0 0 0-1-1.09 2.56 2.56 0 0 0-1.35-.39 2.68 2.68 0 0 0-1.37.37 2.57 2.57 0 0 0-1 1 2.79 2.79 0 0 0-.35 1.39 2.81 2.81 0 0 0 .62 1.91 2.07 2.07 0 0 0 1.67.72c.48-.005.94-.19 1.29-.52a1.66 1.66 0 0 1-1.83 1.66H17V21h.12a3.6 3.6 0 0 0 1.94-.51A3.45 3.45 0 0 0 20.5 19a4.76 4.76 0 0 0 .5-2.23v-.69a3.88 3.88 0 0 0-.36-1.6zm-1.43 2.12a.87.87 0 0 1-.84.51.83.83 0 0 1-.71-.36 1.57 1.57 0 0 1-.26-1 1.79 1.79 0 0 1 .25-1 .74.74 0 0 1 .63-.41.79.79 0 0 1 .68.36c.192.333.279.717.25 1.1v.8z"/>
</svg>
