<svg xmlns="http://www.w3.org/2000/svg" width="24" height="24" viewBox="0 0 24 24">
    <path fill="#4C4D57" fill-rule="evenodd" d="M5.37 6.794a2.77 2.77 0 0 0 2.75 2.198h.21a2.91 2.91 0 0 0 2.75-2.198l.26-1.238c.08-.376.08-.764 0-1.139a3.22 3.22 0 0 0-3.125-2.44 3.22 3.22 0 0 0-3.125 2.44c-.08.375-.08.763 0 1.139l.28 1.238zm7 3.246A3.454 3.454 0 0 0 11 9.76H5.48A3.478 3.478 0 0 0 2 13.238v2.746h7a6.99 6.99 0 0 1 3.33-5.943h.04zM16 9.99c-3.314 0-6 2.684-6 5.993a5.996 5.996 0 0 0 6 5.993c3.314 0 6-2.683 6-5.993a5.996 5.996 0 0 0-6-5.992zm4 6.992h-8v-1.997h8v1.997z"/>
</svg>
