<svg xmlns="http://www.w3.org/2000/svg" width="24" height="24" viewBox="0 0 24 24">
    <path fill="#4C4D57" fill-rule="evenodd" d="M5.37 6.812a2.78 2.78 0 0 0 2.75 2.19h.21a2.92 2.92 0 0 0 2.75-2.19l.26-1.25c.08-.377.08-.765 0-1.141a3.23 3.23 0 0 0-6.25 0c-.08.376-.08.764 0 1.14l.28 1.25zm7 3.24a3.45 3.45 0 0 0-1.37-.28H5.48A3.48 3.48 0 0 0 2 13.255v2.75h7a7.003 7.003 0 0 1 3.33-5.951h.04zm3.63-.05c-3.314 0-6 2.688-6 6.003a6.001 6.001 0 1 0 12 0 6.001 6.001 0 0 0-6-6.002zm-1.06 9.734l-1.41-1.41-2.12-2.121 1.41-1.42 2.12 2.12 4.24-4.241 1.42 1.41-5.66 5.662z"/>
</svg>
