<svg xmlns="http://www.w3.org/2000/svg" width="24" height="24" viewBox="0 0 24 24">
    <path fill="#4C4D57" fill-rule="evenodd" d="M9.14 9.818a2.8 2.8 0 0 0 2.76 2.188h.2a2.89 2.89 0 0 0 2.75-2.188l.26-1.239c.08-.379.08-.77 0-1.149a3.23 3.23 0 0 0-6.26 0c-.08.38-.08.77 0 1.15l.29 1.238zm7.67.94a1.59 1.59 0 0 0 1.57 1.248h.12a1.67 1.67 0 0 0 1.58-1.249l.14-.709c.05-.217.05-.442 0-.66a1.84 1.84 0 0 0-3.57 0c-.05.214-.05.436 0 .65l.16.72zm-12.89 0a1.59 1.59 0 0 0 1.58 1.248h.11a1.67 1.67 0 0 0 1.58-1.249l.14-.749c.05-.217.05-.442 0-.66a1.84 1.84 0 0 0-3.57 0c-.05.214-.05.436 0 .65l.16.76zm10.73 1.998h-5.3A3.411 3.411 0 0 0 6 16.262V19h12v-2.738a3.405 3.405 0 0 0-3.35-3.476v-.03zm5.35-.31h-3.17A4.366 4.366 0 0 1 19 16.003h3v-1.569a2 2 0 0 0-2-1.988zm-12.84 0H4a2 2 0 0 0-2 1.998v1.559h3a4.366 4.366 0 0 1 2.17-3.547l-.01-.01z"/>
</svg>
