<svg xmlns="http://www.w3.org/2000/svg" width="24" height="24" viewBox="0 0 24 24">
    <path fill="#4C4D57" fill-rule="evenodd" d="M16 10.003c-3.314 0-6 2.687-6 6.002a6.001 6.001 0 1 0 12 0 6.001 6.001 0 0 0-6-6.002zm4 7.002h-.87a2.411 2.411 0 0 1-.21.5l.62.62-1.42 1.411-.61-.61a3.89 3.89 0 0 1-.51.21v.87h-2v-.87a4.4 4.4 0 0 1-.5-.21l-.62.61-1.41-1.41.61-.62c-.08-.163-.15-.33-.21-.5H12v-2.002h.87c.058-.174.128-.345.21-.51l-.61-.61 1.41-1.42.62.62a3.11 3.11 0 0 1 .5-.21v-.87h2v.87c.176.053.347.124.51.21l.61-.62 1.42 1.42-.62.61c.09.161.16.333.21.51H20v2.001zm-7.67-6.952a3.449 3.449 0 0 0-1.33-.28H5.48A3.48 3.48 0 0 0 2 13.253v2.752h7a7.003 7.003 0 0 1 3.33-5.952zm-7-3.241a2.78 2.78 0 0 0 2.79 2.19h.21a2.92 2.92 0 0 0 2.75-2.19l.26-1.25c.08-.377.08-.765 0-1.141a3.23 3.23 0 0 0-6.25 0c-.08.376-.08.764 0 1.14l.24 1.25zM16 14.004a2 2 0 1 0 0 4 2 2 0 0 0 0-4z"/>
</svg>
