<svg xmlns="http://www.w3.org/2000/svg" width="24" height="24" viewBox="0 0 24 24">
    <path fill="#4C4D57" fill-rule="evenodd" d="M5.37 6.822a2.78 2.78 0 0 0 2.75 2.18h.21a2.92 2.92 0 0 0 2.75-2.19l.26-1.25c.08-.377.08-.765 0-1.141a3.23 3.23 0 0 0-6.25 0c-.08.376-.08.764 0 1.14l.28 1.26zM16 10.002c-3.314 0-6 2.688-6 6.003a6.001 6.001 0 1 0 12 0 6.001 6.001 0 0 0-6-6.002zm4 7.003h-3v3.001h-2v-3h-3v-2.002h3v-3h2v3h3v2.001zm-7.68-7.002a3.359 3.359 0 0 0-1.32-.22H5.48A3.48 3.48 0 0 0 2 13.263v2.742h7a7.003 7.003 0 0 1 3.32-5.942v-.06z"/>
</svg>
