<svg xmlns="http://www.w3.org/2000/svg" width="24" height="24" viewBox="0 0 24 24">
    <path fill="#4C4D57" fill-rule="evenodd" d="M22 12v-.05a.88.88 0 0 0-.07-.33.83.83 0 0 0-.22-.33l-3-3a1 1 0 1 0-1.42 1.41l1.3 1.3H13V5.41l1.29 1.29a1 1 0 0 0 1.42-1.41l-3-3a1.21 1.21 0 0 0-.32-.22A1 1 0 0 0 12 2a1 1 0 0 0-.39.07 1 1 0 0 0-.27.19l-3 3A1 1 0 0 0 9.71 6.7L11 5.41V11H5.41l1.3-1.3a1 1 0 1 0-1.42-1.41l-3 3a.83.83 0 0 0-.22.33A.88.88 0 0 0 2 12a1 1 0 0 0 .08.39 1 1 0 0 0 .21.32l3 3a1 1 0 1 0 1.42-1.41L5.42 13H11v5.59l-1.3-1.3a1 1 0 1 0-1.42 1.41l3 3a1 1 0 0 0 .27.18A1 1 0 0 0 12 22a1 1 0 0 0 .7-.3l3-3a1 1 0 1 0-1.42-1.41L13 18.58V13h5.57l-1.29 1.29a1 1 0 1 0 1.42 1.41l3-3a1 1 0 0 0 .21-.32A1 1 0 0 0 22 12z"/>
</svg>
