<svg xmlns="http://www.w3.org/2000/svg" width="24" height="24" viewBox="0 0 24 24">
    <path fill="#4C4D57" fill-rule="evenodd" d="M11.006 6H9.005v3H6.003v2h3.002v3h2.001v-3h3.003V9h-3.003V6zm10.698 14.27L16.33 14.9a7.995 7.995 0 0 0 .861-8.42A8.006 8.006 0 0 0 10.006 2a8.005 8.005 0 0 0-7.62 5.611 7.997 7.997 0 0 0 3.06 8.95 8.01 8.01 0 0 0 9.463-.221l5.374 5.37c.194.192.458.297.73.29a1.001 1.001 0 0 0 .691-1.73zM10.006 16A6.002 6.002 0 0 1 4 10c0-3.314 2.689-6 6.005-6a5.998 5.998 0 1 1 4.246 10.243A6.006 6.006 0 0 1 10.005 16z"/>
</svg>
