<svg xmlns="http://www.w3.org/2000/svg" width="24" height="24" viewBox="0 0 24 24">
    <path fill="#4C4D57" fill-rule="evenodd" d="M18 11h2V3l-3.67 1.22v1.4L18 5.09V11zm-8.71 5.29L8 17.59V4a1 1 0 1 0-2 0v13.59L4.71 16.3a1 1 0 1 0-1.42 1.41l3 3A1 1 0 0 0 7 21a1 1 0 0 0 .71-.29l3-3a1 1 0 0 0 0-1.41 1 1 0 0 0-1.42-.01zm11.35-1.8a2.59 2.59 0 0 0-1-1.1 2.59 2.59 0 0 0-2.72-.01 2.55 2.55 0 0 0-1 1 2.79 2.79 0 0 0-.35 1.39 2.81 2.81 0 0 0 .62 1.91 2.07 2.07 0 0 0 1.67.72 1.87 1.87 0 0 0 1.29-.52 1.66 1.66 0 0 1-1.83 1.66H17V21h.12a3.6 3.6 0 0 0 1.94-.51A3.45 3.45 0 0 0 20.5 19a4.73 4.73 0 0 0 .5-2.23v-.69a3.8 3.8 0 0 0-.36-1.59zm-1.43 2.11a.87.87 0 0 1-.84.51.83.83 0 0 1-.71-.36 1.57 1.57 0 0 1-.26-1 1.81 1.81 0 0 1 .25-1 .74.74 0 0 1 .63-.41.79.79 0 0 1 .68.36c.192.337.28.723.25 1.11v.79z"/>
</svg>
