<svg xmlns="http://www.w3.org/2000/svg" width="24" height="24" viewBox="0 0 24 24">
    <path fill="#4C4D57" fill-rule="evenodd" d="M7.94 9.615a2.001 2.001 0 0 0-.81-.18H4a2 2 0 0 0-2 1.999v1.559h2.34a4.069 4.069 0 0 1 3.6-3.378zm-4-1.869a1.59 1.59 0 0 0 1.56 1.25h.12a1.67 1.67 0 0 0 1.57-1.25l.15-.75c.04-.217.04-.44 0-.659a1.85 1.85 0 0 0-3.58 0 1.628 1.628 0 0 0 0 .66l.18.75zM16 9.995c-3.314 0-6 2.684-6 5.996a5.998 5.998 0 0 0 6 5.996c3.314 0 6-2.685 6-5.996a5.998 5.998 0 0 0-6-5.996zm4 6.995h-.87a2.408 2.408 0 0 1-.21.5l.62.62-1.42 1.408-.61-.61c-.163.084-.334.15-.51.2v.88h-2v-.88a3.071 3.071 0 0 1-.5-.2l-.62.61-1.41-1.409.61-.62a4.396 4.396 0 0 1-.21-.499H12v-1.999h.87c.058-.174.128-.344.21-.51l-.61-.619 1.41-1.409.62.61c.16-.081.328-.148.5-.2v-.87h2v.87c.176.05.347.117.51.2l.61-.61 1.42 1.41-.62.619c.09.16.16.332.21.51H20v1.998zM8.87 7.287a3.05 3.05 0 0 0 3 2.408h.23a3.22 3.22 0 0 0 3-2.408l.28-1.37a3.146 3.146 0 0 0 0-1.259 3.55 3.55 0 0 0-6.88 0c-.09.415-.09.844 0 1.26l.37 1.369zm3 3.107H8.51A3.501 3.501 0 0 0 5 13.892v2.099h4a6.994 6.994 0 0 1 2.82-5.597h.05zM16 13.992a2 2 0 1 0-.001 3.999A2 2 0 0 0 16 13.992z"/>
</svg>
