<svg xmlns="http://www.w3.org/2000/svg" width="24" height="24" viewBox="0 0 24 24">
    <path fill="#4C4D57" fill-rule="evenodd" d="M11 2.4a.4.4 0 0 0-.4-.4H9.4a.4.4 0 0 0-.4.4V4h2V2.4zM16.4 18h1.2a.4.4 0 0 0 .4-.4v-1.2a.4.4 0 0 0-.4-.4h-1.2a.4.4 0 0 0-.4.4v1.2c0 .22.18.4.4.4zm0-4h1.2a.4.4 0 0 0 .4-.4v-1.2a.4.4 0 0 0-.4-.4h-1.2a.4.4 0 0 0-.4.4v1.2c0 .22.18.4.4.4zM15 2.4a.4.4 0 0 0-.4-.4h-1.2a.4.4 0 0 0-.4.4V4h2V2.4zm4 0a.4.4 0 0 0-.4-.4h-1.2a.4.4 0 0 0-.4.4V4h2V2.4zm-12 0a.4.4 0 0 0-.4-.4H5.4a.4.4 0 0 0-.4.4V4h2V2.4zM2 5v16a1 1 0 0 0 1 1h18a1 1 0 0 0 1-1V5H2zm18 15H4V10h16v10zm-8.6-6h1.2a.4.4 0 0 0 .4-.4v-1.2a.4.4 0 0 0-.4-.4h-1.2a.4.4 0 0 0-.4.4v1.2c0 .22.18.4.4.4zm-5 4h1.2a.4.4 0 0 0 .4-.4v-1.2a.4.4 0 0 0-.4-.4H6.4a.4.4 0 0 0-.4.4v1.2c0 .22.18.4.4.4zm0-4h1.2a.4.4 0 0 0 .4-.4v-1.2a.4.4 0 0 0-.4-.4H6.4a.4.4 0 0 0-.4.4v1.2c0 .22.18.4.4.4zm5 4h1.2a.4.4 0 0 0 .4-.4v-1.2a.4.4 0 0 0-.4-.4h-1.2a.4.4 0 0 0-.4.4v1.2c0 .22.18.4.4.4z"/>
</svg>
