<svg xmlns="http://www.w3.org/2000/svg" width="24" height="24" viewBox="0 0 24 24">
    <path fill="#4C4D57" fill-rule="evenodd" d="M7 13h2v-2H7v2zm0-8h2V3H7v2zm0 16h2v-2H7v2zm4-4h2v-2h-2v2zm0 4h2v-2h-2v2zm-8-1a1 1 0 0 0 1 1h1v-2H3v1zm0-3h2v-2H3v2zM3 4v1h2V3H4a1 1 0 0 0-1 1zm0 5h2V7H3v2zm1 2H3v2h2v-2H4zm7-2h2V7h-2v2zm0 4h2v-2h-2v2zm9-2h-1v2h2v-2h-1zm-1 10h1a1 1 0 0 0 1-1v-1h-2v2zm0-12h2V7h-2v2zm1-6h-1v2h2V4a1 1 0 0 0-1-1zm-1 14h2v-2h-2v2zM15 5h2V3h-2v2zm0 16h2v-2h-2v2zM11 5h2V3h-2v2zm4 8h2v-2h-2v2z"/>
</svg>
