<svg xmlns="http://www.w3.org/2000/svg" width="24" height="24" viewBox="0 0 24 24">
    <path fill="#4C4D57" fill-rule="evenodd" d="M4.19 13.09a1.69 1.69 0 0 1 2.31-.61L9 13.93v-.65a2.4 2.4 0 0 0-2.4-2.4H5.41A2.39 2.39 0 0 0 3 13.28V21h6v-3.18L4.81 15.4a1.7 1.7 0 0 1-.62-2.31zm11.13-5.27A2.66 2.66 0 0 0 17.91 10h.19a2.78 2.78 0 0 0 2.59-2.19l.24-1.25a2.74 2.74 0 0 0 0-1.14 3 3 0 0 0-5.89 0 2.74 2.74 0 0 0 0 1.14l.28 1.26zm-12 0A2.66 2.66 0 0 0 5.91 10h.19a2.78 2.78 0 0 0 2.59-2.18l.24-1.25c.103-.37.127-.76.07-1.14A3.05 3.05 0 0 0 6 3a3 3 0 0 0-2.94 2.43 2.74 2.74 0 0 0 0 1.14l.26 1.25zm8.74 8.52L6.22 13a1.13 1.13 0 1 0-1.13 1.95l5.85 3.38a1.124 1.124 0 0 0 1.12-1.95v-.04zm7.26-3a1.14 1.14 0 0 0-1.54-.34l-5.24 3a1.68 1.68 0 0 1 .46 2.16 1.06 1.06 0 0 1-.16.21 1.12 1.12 0 0 0 .26-.08l5.85-3.38a1.13 1.13 0 0 0 .37-1.54v-.03zm-.71-2.49h-1.2a2.39 2.39 0 0 0-2.4 2.4v.63l2.49-1.43a1.69 1.69 0 1 1 1.69 2.92L15 17.81V21h6v-7.72a2.4 2.4 0 0 0-2.39-2.4v-.03z"/>
</svg>
