<svg xmlns="http://www.w3.org/2000/svg" width="24" height="24" viewBox="0 0 24 24">
    <path fill="#4C4D57" fill-rule="evenodd" d="M21.88 13.46c.075-.483.115-.971.12-1.46a10.17 10.17 0 0 0-.12-1.47l-2.21-.79A7.83 7.83 0 0 0 19 8.16L20 6a10.15 10.15 0 0 0-2-2l-2.16 1a8.2 8.2 0 0 0-1.59-.66l-.79-2.2A10 10 0 0 0 12 2a10.17 10.17 0 0 0-1.47.12l-.78 2.2A8.58 8.58 0 0 0 8.16 5L6.05 4A9.67 9.67 0 0 0 4 6.05l1 2.11a7.92 7.92 0 0 0-.65 1.59l-2.21.79A9.92 9.92 0 0 0 2 12a10 10 0 0 0 .12 1.46l2.21.79A7.92 7.92 0 0 0 5 15.84L4 18a9.91 9.91 0 0 0 2.05 2l2.11-1a8.17 8.17 0 0 0 1.59.65l.79 2.21A10 10 0 0 0 12 22a10.17 10.17 0 0 0 1.47-.12l.78-2.21a7.41 7.41 0 0 0 1.59-.67L18 20a10.15 10.15 0 0 0 2-2l-1-2.12a7.92 7.92 0 0 0 .65-1.59l2.23-.83zM12 16a4 4 0 1 1 0-8 4 4 0 0 1 0 8z"/>
</svg>
