<svg xmlns="http://www.w3.org/2000/svg" width="24" height="24" viewBox="0 0 24 24">
    <path fill="#4C4D57" fill-rule="evenodd" d="M16 10.003c-3.314 0-6 2.687-6 6.002a6.001 6.001 0 1 0 12 0 6.001 6.001 0 0 0-6-6.002zm3.34 8.323l-.43.43-.42.42-.29.28s-1.41 0-3.53-2.12c-2.12-2.121-2.12-3.532-2.12-3.532l.28-.29.42-.42.43-.43a.4.4 0 0 1 .56 0l.85.85a.4.4 0 0 1 0 .57l-.88.89c.396.537.834 1.043 1.31 1.511.456.477.951.915 1.48 1.31l.89-.88a.4.4 0 0 1 .57 0l.85.85a.4.4 0 0 1 .03.56zM5.37 6.812a2.78 2.78 0 0 0 2.75 2.19h.21a2.91 2.91 0 0 0 2.75-2.19l.25-1.24a2.632 2.632 0 0 0 0-1.151 3.23 3.23 0 0 0-6.25 0 2.632 2.632 0 0 0 0 1.15l.29 1.24zm7 3.25a3.45 3.45 0 0 0-1.37-.28H5.48A3.48 3.48 0 0 0 2 13.265v2.74h7a7.003 7.003 0 0 1 3.33-5.941h.04z"/>
</svg>
