<svg xmlns="http://www.w3.org/2000/svg" width="24" height="24" viewBox="0 0 24 24">
    <path fill="#4C4D57" fill-rule="evenodd" d="M9.332 18.925a4.717 4.717 0 0 1-1.479.898 2.61 2.61 0 0 1-2.918-.748c-1.998-1.997-.07-4.154.16-4.394l4.077-4.073L7.763 9.19l-4.087 4.083c-1.279 1.279-2.947 4.424-.16 7.22A4.788 4.788 0 0 0 6.904 22c.556 0 1.107-.098 1.629-.29a6.366 6.366 0 0 0 2.208-1.367l4.087-4.084-1.42-1.408-4.076 4.074zM16.996 8.49l-1.459-1.418-8.483 8.477 1.409 1.458 8.533-8.517zm3.538-4.992a4.629 4.629 0 0 0-4.997-1.219 6.526 6.526 0 0 0-2.208 1.368L9.172 7.782l1.42 1.408 4.076-4.074a3.798 3.798 0 0 1 2.398-1.088c.764.02 1.487.351 1.999.918 1.998 1.997.08 4.154-.16 4.394l-4.077 4.083 1.409 1.408 4.087-4.074c1.279-1.268 2.947-4.423.16-7.209l.05-.05z"/>
</svg>
