<svg xmlns="http://www.w3.org/2000/svg" width="24" height="24" viewBox="0 0 24 24">
    <path fill="#4C4D57" fill-rule="evenodd" d="M11.715 17.453a2.67 2.67 0 0 0-1.811.64 2.222 2.222 0 0 0 0 3.266 2.67 2.67 0 0 0 1.811.64 2.65 2.65 0 0 0 1.801-.64 2.202 2.202 0 0 0 0-3.267 2.65 2.65 0 0 0-1.801-.64zm4.876-14.058a7.125 7.125 0 0 0-4.717-1.379 6.828 6.828 0 0 0-4.667 1.5A5.386 5.386 0 0 0 5.505 7.69h4.568a2.565 2.565 0 0 1 .527-1.598 1.66 1.66 0 0 1 1.274-.59c1.175 0 1.762.68 1.762 1.999a2.494 2.494 0 0 1-.528 1.528 8.974 8.974 0 0 1-1.512 1.519 4.795 4.795 0 0 0-1.453 1.998 8.674 8.674 0 0 0-.448 3.097h3.871a5.274 5.274 0 0 1 .299-1.638c.225-.517.565-.975.995-1.339l1.552-1.439a6.99 6.99 0 0 0 1.433-1.868 4.561 4.561 0 0 0 .448-1.998 4.865 4.865 0 0 0-1.702-3.967z"/>
</svg>
