<svg xmlns="http://www.w3.org/2000/svg" width="24" height="24" viewBox="0 0 24 24">
    <path fill="#4C4D57" fill-rule="evenodd" d="M16.29 9.5h2.4l.43 1.5H21l-2.69-8h-1.64L14 11h1.87l.42-1.5zm1.21-4.26L18.277 8h-1.555l.778-2.76zM14 14.49h3.62L14 20v1h6v-1.48h-3.57L20 14v-1h-6v1.49zM7.718 3.29A.99.99 0 0 0 7.023 3a.99.99 0 0 0-.696.29l-2.98 3a1.004 1.004 0 0 0 .414 1.732.99.99 0 0 0 .987-.322l1.281-1.29V20c0 .552.445 1 .994 1a.997.997 0 0 0 .993-1V6.42l1.281 1.29a.993.993 0 0 0 1.669-.45 1.009 1.009 0 0 0-.258-.97l-2.99-3z"/>
</svg>
