<svg xmlns="http://www.w3.org/2000/svg" width="24" height="24" viewBox="0 0 24 24">
    <path fill="#4C4D57" fill-rule="evenodd" d="M5.005 6.385l12.59 12.612 1.4-1.401L6.405 4.984l-1.4 1.401zm4.327 12.532c-.433.39-.935.695-1.479.9a2.585 2.585 0 0 1-2.918-.75c-1.998-2.002-.07-4.164.16-4.404l2.668-2.673-1.419-1.41-2.668 2.672c-1.279 1.28-2.947 4.434-.16 7.237A4.793 4.793 0 0 0 6.914 22a4.71 4.71 0 0 0 1.619-.3 6.363 6.363 0 0 0 2.208-1.372l2.678-2.672L12 16.244l-2.668 2.673zM20.484 3.502a4.621 4.621 0 0 0-4.997-1.22c-.82.303-1.571.77-2.208 1.37l-2.688 2.683L12 7.746l2.668-2.672a3.794 3.794 0 0 1 2.398-1.091c.764.02 1.487.352 1.999.92 1.998 2.003.08 4.165-.16 4.405l-2.668 2.682 1.419 1.422 2.668-2.673c1.279-1.281 2.947-4.444.16-7.237z"/>
</svg>
